<?xml version="1.0" encoding="utf-8"?>
<!-- Generator: Adobe Illustrator 23.0.4, SVG Export Plug-In . SVG Version: 6.00 Build 0)  -->
<svg version="1.1" id="Слой_1" xmlns="http://www.w3.org/2000/svg" xmlns:xlink="http://www.w3.org/1999/xlink" x="0px" y="0px"
	 viewBox="0 0 430.9 309" style="enable-background:new 0 0 430.9 309;" xml:space="preserve">
<g>
	<path d="M39.9,295c0.1-0.5,0.2-1,0.2-1.6c0.3-9,0.4-18,0.8-26.9c0.4-9,1.4-17.9,4.8-26.4c3.9-10,11.2-16.4,20.9-20.6
		c12.6-5.5,25.3-10.6,37.4-17c3.2-1.7,6.3-3.4,9.4-5.2c1.9-1,2.1-1,2.8,1c4,11,7.5,22.2,11,33.4c4.1,12.9,8.2,25.9,12.6,38.8
		c0.3,0.9,0.6,1.8,1.1,3.1c1.2-3.2,2.2-5.9,3.2-8.6c1.9-5.4,3.7-10.7,5.7-16.1c0.5-1.4,0.3-2.4-0.5-3.6c-3.3-4.7-5.9-9.7-7.6-15.2
		c-3-10.2,4.6-15.3,11.3-16c4.1-0.4,8.3-0.1,12.2,1.5c4.7,1.9,6.4,4.5,6.6,9.6c0.3,5.6-1.9,10.3-4.6,14.8c-1.2,2-2.4,4-3.6,6
		c-0.4,0.6-0.6,1.3-0.4,2c3,8.3,5.7,16.7,9,24.8c0,0,0.1,0.1,0.2,0.2c0.6-0.5,0.7-1.3,0.9-2c6.1-18.9,12.2-37.8,18.3-56.7
		c1.7-5.4,3.6-10.7,5.3-16c0.5-1.7,1.3-1.9,2.7-1c14.7,8.4,30.1,15.2,45.7,21.7c7.1,3,13.6,6.9,18.1,13.4c4.1,6,6.2,12.8,7.4,19.9
		c1.1,6.1,1.4,12.4,1.7,18.6c0.3,7.5,0.4,14.9,0.5,22.5c0,3.5,0.5,6.9,0.3,10.4c-77.8,0-155.7,0-233.5,0
		C39.9,300.8,39.9,297.9,39.9,295z"/>
	<path d="M392,89.9c-0.7,4.7-1.3,9.4-2.7,13.9c-9.6,29.8-29.8,47.7-60.5,53.4c-16.3,3-31.9-0.1-46.6-7.6c-2.2-1.1-4-1-6.1,0.3
		c-7.7,4.8-16.2,7.5-25.4,7c-1.1-0.1-2.3-0.1-3.4-0.4c-2.5-0.5-3.2-2.5-1.7-4.5c0.5-0.7,1.3-1.3,2-1.8c5.6-3.7,9.8-8.7,13-14.6
		c0.7-1.2,0.7-2-0.3-3.2c-8.2-10-14.1-21.2-16.6-33.8c-4.9-24.5,1-46.3,17.4-65.2c10.8-12.5,24.7-20.3,40.8-23.8
		c3.2-0.7,6.4-0.8,9.6-1.2c3,0,6,0,9,0c0.6,0.3,1.3,0.3,1.9,0.3c3.1,0,6.1,0.3,9.1,0.9c29.1,6.6,48.3,24,57.6,52.3
		c1.5,4.7,2.2,9.6,2.8,14.4C392,80.8,392,85.3,392,89.9z M374,83.2c1.2-30.2-25.8-58.4-57.6-56.8c-24.1-1.8-56.6,20.2-56.4,56.8
		c0.1,35.2,29.5,56.8,56.2,57.2C347.6,140.8,375.4,113.6,374,83.2z"/>
	<path d="M217.1,88.2c0.2,8.2-0.7,16-2.3,23.6c-0.3,1.3,0.1,2,1,2.7c1.2,0.9,1.8,2.1,2,3.6c0.9,8.1-0.8,15.8-3.8,23.3
		c-1,2.6-2,5.1-3.6,7.4c-1.3,1.9-2.8,3.4-5.3,3.7c-1.4,0.2-1.9,1.3-2.2,2.5c-1.4,6.3-3.4,12.3-6.4,18c-7.7,14.8-19.9,23.2-36.5,24.9
		c-13.7,1.3-25.9-3.1-36.2-12.2c-8-7-12.3-16.2-15.2-26.2c-0.7-2.4-1.3-4.8-1.9-7.3c-0.3-1.3-0.8-2.3-2.1-2.9
		c-1.4-0.7-2.2-2-2.9-3.3c-4.1-7.4-6.4-15.3-7.5-23.6c-0.4-2.6-0.2-5.1,0.4-7.7c0.5-2.1,1.8-3.6,3.8-4.1c2-0.5,2.1-1.7,1.7-3.3
		c-1.2-4.7-1.7-9.4-1.7-14.2c0.2-12.9,4.7-24.2,13.1-33.9c7.8-9,17.1-16.2,28.1-20.9c6.8-2.9,14-3.3,21.3-3.1
		c6.4,0.2,12.5,1.3,18.3,4c6.8,3.1,12.8,7.2,17.5,13.1c1.5,1.8,3.3,3,5.4,4c5.7,2.6,9.4,7.1,11.7,13
		C216.8,75.3,217.4,81.9,217.1,88.2z"/>
	<path d="M296.9,83c0,4.5-3.8,8.2-8.3,8.2c-4.4,0-8-3.6-8-8c0-4.5,3.7-8.2,8.1-8.1C293.1,75.1,296.9,78.9,296.9,83z"/>
	<path d="M337.6,83.1c0-4.6,3.5-8,8.1-8c4.4,0,7.9,3.6,7.9,8c0,4.3-3.7,8.3-7.8,8.3C341.4,91.4,337.6,87.6,337.6,83.1z"/>
	<path d="M317.2,75.1c4.4,0,8.1,3.7,8,8c-0.1,4.6-3.9,8.3-8.4,8.4c-3.6,0-7.8-4.5-7.8-8.3C309,79,313.1,75,317.2,75.1z"/>
</g>
</svg>
